<svg enable-background="new 0 0 80 80" height="80" viewBox="0 0 80 80" width="80" xmlns="http://www.w3.org/2000/svg"><circle cx="40" cy="40" r="40"/><g fill="#fff"><path d="m30.972 29.076-.14.35-.716.756c-.597.19-.914 1.017-1.404 1.575l-.59.687-.965.802-2.024 1.609-.033.033-2.236 1.528-.443.212c-.222.106-.473.214-.505.215l-.127.07-.096.067-.667.35-.28.047-.287.203c-.097.068-.162.134-.225.168l-.031.002-.509.31c-.217.012-.731.415-.955.583l-.096.067c-.001.032-.001.032-.033.033l-.062.003c.569.372.961.598.993.565l.061.028 1.925 1.133.751.456 2.803 2.172c-.001.03.251.577.411.474l.151.086.738.733.515.871.049.28-.004.092-.039.157.118.118.058.09.057.09c.026.093.056.121.087.119l.177.178.054.152-.245.605c-.222.106-.29.233-.321.268l-.537.218c.001-.033-.367-.072-.462-.036l-.363-.166c-.275-.078-.187.012-.337-.074l-.337-.042c-.454-.223-.995-.535-1.332-.607l-.061-.028-1.024-.563c-.511-.314-1.058-.531-1.087-.56-.031.002-.12-.056-.212-.082-.061-.026-.121-.056-.213-.08l-.029-.03-4.409-2.205c-.031.002-.031.002-.03-.028l-.059-.059-.121-.056-.121-.057-.118-.118-.238-.202-.212.573-.068.126c-.159.104-.498.716-1.09 2.116l-.742 1.317-.558.686-.349.178-.465.026-.443-.44c.033-.033-.061-.029-.059-.06l-.234-.299.004-.061c-.092-.025-.121-.058-.121-.058-.031.004-.031.004-.03-.028l-.197-.393.068-.78c-.013.28.496-1.989.794-3.062l.594-2.089c.033-.032.18-.539.188-.694l.036-.096.458-1.208c.245-.605.492-1.242.494-1.273.001-.031.039-.157.076-.315l.074-.253.035-.095.651-1.345c.124-.007.242-.542.248-.667l.07-.16c.166-.259.542-.995.46-1.239l.069-.16c.098-.099.25-.668.253-.761l.68-1.284.396-.52.518-.497.223-.137c.091.025.689-.195 1.191-.349l.775-.044.335.105.354.352.11.306.008.465-.264 1.665c-.1.161-.215.634-.362 1.11l-.036.095-.067.127c-.036.096-.102.193-.072.222l-.037.127c-.033.033-.035.095-.037.127l-.041.188.448-.305c.094-.037.159-.104.222-.138l.095-.037c.088.089 1.397-.764 2.381-1.318 0 0 .001-.031.034-.064.001-.031.001-.031.032-.033l.096-.067c1.661-1.122 4.026-2.751 4.249-2.889l.129-.1c.031-.001.407-.117.378-.146l.316-.142c.031-.002.095-.037.22-.075.064-.035.127-.069.16-.102l.371.01c.032-.033.063-.035.095-.037.031-.001.347-.144.692-.257.188-.073.409-.148.662-.256l.401.008.302.169.199.362z"/><path d="m42.782 34.899c-.017.343-.186.633-.288.856-.426 3.136-1.186 6.103-2.655 9.05-.236.419-.318.826-.495 1.302-.142.383-.411.832-.423 1.114l-.011.219c-.136.94-.979 2.389-1.251 2.934-.174.415-.452 1.706-1.349 3.032.001-.03.001-.03.034-.064-.102.16-.261.263-.478.276-.093.005-.153-.021-.243-.078l-.008.185c-.017.345-.235.389-.241.512l-.007.158c-.037.778-.98.459-1.276 1.472l.062-.002c.217-.014.376-.116.449-.337-.186.662-.999 1.486-1.009 1.736-.005.093.052.185.077.307-.016.343-.278.668-.388 1.019-.158.723-.229.913-1.346.979-1.116.062-1.859-.547-1.932-1.632.04-.842.401-1.951.664-2.932.105-.253 1.12-3.391 1.926-3.437.464-.028 2.155-4.355 2.621-5.719.177-.478.27-1.137.538-1.556.143-.381.477-.275.493-.618.009-.188.016-.343-.01-.437.006-.125.167-.259.202-.354-1.393 1.325-3.21 3.141-5.07 3.247-.124.006-.217.012-.247-.019-.062.004-3.184-1.963-3.076-4.239l.33-1.108-.004-.562c.009-.185.047-.343.115-.472.373-.674.489-.525.498-.712.036-.749 1.025-2.049 1.747-2.931-.002.031-.002.031-.034.064.633-.969 1.742-2.185 2.951-2.253.868-.05 1.578.625 1.625 1.586-.053 1.123-1.35 1.727-1.54 2.483-.304 1.2-2.001 3.723-2.048 4.721.975-.337 2.038-1.235 2.844-1.935.607-.41.758-.978 1.366-1.417.513-.402 1.301-1.349 2.228-2.647.431-.616.434-1.332.804-1.943.406-.739 1.123-.874 1.836-.915.62-.035 1.253.333 1.768.552.082.152.263.297.251.515z"/><path d="m57.393 24.698c-.027.561-.115 1.126-.301 1.79l-.005.094c-.016.312-.097.721-.245 1.259l-.065.097c-2.424 4.151-4.609 7.201-6.562 9.242-.713 1.347-2.046 2.077-2.238 2.896l-.102.192c-.627.814-1.178.69-1.225 1.687-.011.187.04.435.037.497l.11.274c.381.443 1.389.729 2.256.68.62-.036 1.186-.225 1.572-.527l.345-.114c.093-.004.125-.006.307.046.221-.106.474-.183.691-.196.867-.05 1.182.463 1.426 1.226l-.006.094c-.005.093-.008.187-.08.407l-.006.097-.757.292c-.146-.148-.453-.192-.702-.178-.805.046-3.431 1.255-4.824 1.335l-.56.061-.338-.042c-1.263-.081-2.326-.487-2.982-2.316l-.283.141s.032-.032 0-.03c-.062.002-1.243.816-2.254 1.247l-.622.068c-.497.06-.978-.255-1.08-.686l.243-.572c.222-.107.574-.377.989-.647.669-.411 1.583-.744 2.647-1.678.224-.167.368-.58.694-.973l.24-1.134.143-.412c.071-.19.14-.35.181-.54.068-.128.027-.592.713-2l.107-.318c.103-.192.206-.416.346-.735l.382-.924.2-.292c.117-.504.355-.954.681-1.346.217-.635.662-1.562 1.225-2.341l.614-1.217.161-.103.139-.35 1.771-2.124c.172-.383.431-.585.753-.883l.314-.111c.458-.555.887-1.108 1.341-1.569l.192-.136c.852-.36 1.603-.527 2.252-.564.654-.038 1.426-.051 1.968.26l.17.302c.023.214.04.493.027.774zm-3.245 3.857c.013-.25-.087-.804-.425-.785-.688.102-3.724 4.818-4.932 7.469-.452 1.021-1.383 2.443-1.41 3.004.222-.106.419-.335.548-.467l3.068-4.064c1.649-2.179 1.869-2.254 2.328-3.462.468-.743.261-.264.638-1.032.103-.223.176-.446.185-.663z"/><path d="m65.37 40.975c-.084 1.748-3.89 5.076-7.052 5.259-3.069.177-5.846-3.897-5.681-7.358.028-.592.481-1.676.647-1.934.553-.562.674-1.159 1.173-1.903.401-.645 1.035-.961 1.529-1.581.788-.978 1.401-1.511 2.61-2.234.289-.234.404-.739.87-.765.434-.025 1.232.737 2.939.64l-.031.001c1.39.076 3.664 1.625 3.577 3.465-.148 3.119-3.808 4.697-6.443 4.848-.619.036-1.332.045-1.914-.077-.154-.021-.395-.163-.548-.154-.125.007-.998 1.458-1.033 2.175-.049 1.061.811 1.196 1.666 1.397.46.098.536.435 1.249.395 1.023-.062 2.318-.663 3.243-1.213.83-.545 1.993-1.607 2.581-1.642.372-.02.64.214.618.681zm-8.449-3.123c.214.081.427.162.644.15.248-.014 3.86-1.839 3.949-3.741.011-.219-.259-.421-.475-.409-.343.019-.669.412-.955.583-1.401.858-2.206 2.148-3.163 3.417z"/></g></svg>